<?xml version="1.0" encoding="UTF-8"?>
<svg version="1.1" xmlns="http://www.w3.org/2000/svg" width="256" height="256">
<path d="M0 0 C84.48 0 168.96 0 256 0 C256 84.48 256 168.96 256 256 C171.52 256 87.04 256 0 256 C0 171.52 0 87.04 0 0 Z " fill="#000000" transform="translate(0,0)"/>
<path d="M0 0 C13.56937144 -0.15820792 27.13812939 -0.28660572 40.70821476 -0.3626852 C47.00952 -0.39920147 53.31016102 -0.44872486 59.61108398 -0.52807617 C65.69303848 -0.60418968 71.77435453 -0.64600237 77.85674858 -0.6641407 C80.17604053 -0.67706493 82.49529791 -0.70230364 84.8143177 -0.7401104 C88.06586042 -0.79100697 91.31477278 -0.79792022 94.56665039 -0.79467773 C96.00164131 -0.83242813 96.00164131 -0.83242813 97.46562195 -0.87094116 C102.51705878 -0.81651531 105.29398361 -0.28651328 108.96629333 3.31871033 C110.00924389 4.51896757 111.02176061 5.74644066 112 7 C115.73057526 11.64187344 119.41688727 15.40346062 124.26208496 18.86935425 C134.70133243 26.42163884 146.61690692 35.3110627 149.83612061 48.39941406 C152.53665721 66.33119135 150.6260478 85.06529496 149 103 C134.81 103 120.62 103 106 103 C106 83.53 106 64.06 106 44 C71.02 44 36.04 44 0 44 C0 29.48 0 14.96 0 0 Z " fill="#FEFEFE" transform="translate(53,30)"/>
<path d="M0 0 C34.98 0 69.96 0 106 0 C106 14.52 106 29.04 106 44 C85.54 44 65.08 44 44 44 C44 59.51 44 75.02 44 91 C41.69 89.02 39.38 87.04 37 85 C35.61076662 83.88488031 34.21494781 82.77784444 32.80883789 81.68408203 C28.63524783 78.38358247 24.63651047 74.91481036 20.66381836 71.37597656 C18.9589373 69.90070642 17.21208995 68.47230301 15.42358398 67.09960938 C7.76410296 61.17412093 5.64216348 57.03757197 0 48 C0 32.16 0 16.32 0 0 Z " fill="#FDFDFD" transform="translate(53,134)"/>
</svg>
