<svg xmlns="http://www.w3.org/2000/svg" width="24" height="24" viewBox="-303 -302 606 604" fill="none">
    <path stroke="currentColor" stroke-width="20" fill="none" 
          transform="translate(-302.5, -301)" 
          d="M 230.525 527.75 C 230.835 526.513 230.956 501.538 230.794 472.25 C 230.794 472.25 230.5 418.999 230.5 418.999 C 230.5 418.999 302.75 419 302.75 419 C 302.75 419 375 419 375 419 C 375 419 375 367.5 375 367.5 C 375 367.5 375 316 375 316 C 375 316 426.5 316 426.5 316 C 426.5 316 478 316 478 316 C 478 316 478 248.389 478 248.389 C 478 248.389 478 180.778 478 180.778 C 478 180.778 424.863 126.889 424.863 126.889 C 424.863 126.889 371.725 73 371.725 73 C 371.725 73 249.363 73 249.363 73 C 249.363 73 127 73 127 73 C 127 73 127 124.5 127 124.5 C 127 124.5 127 176 127 176 C 127 176 251 176 251 176 C 251 176 375 176 375 176 C 375 176 375 246 375 246 C 375 246 375 316 375 316 C 375 316 251 316 251 316 C 251 316 127 316 127 316 C 127 316 127 372.246 127 372.246 C 127 372.246 127 428.493 127 428.493 C 127 428.493 177.746 479.246 177.746 479.246 C 205.656 507.16 228.823 530 229.227 530 C 229.631 530 230.215 528.987 230.525 527.75"/>
    
    <path fill="currentColor" fill-opacity="0.5" transform="translate(-302.5, -301)" d="M 177.746 479.246 C 177.746 479.246 127 428.493 127 428.493 C 127 428.493 127 372.242 127 372.242 C 127 372.242 127 315.992 127 315.992 C 127 315.992 250.75 316.246 250.75 316.246 C 250.75 316.246 374.5 316.5 374.5 316.5 C 374.5 316.5 374.759 367.75 374.759 367.75 C 374.759 367.75 375.018 419 375.018 419 C 375.018 419 302.509 419 302.509 419 C 302.509 419 230 419 230 419 C 230 419 230 474.5 230 474.5 C 230 505.025 229.661 530 229.246 530 C 228.831 530 205.656 507.16 177.746 479.246"/>
    <path fill="currentColor" fill-opacity="0.4" transform="translate(-302.5, -301)" d="M 375 248.7 C 375 248.7 375.5 180.5 375.5 180.5 C 375.5 180.5 375.757 247.943 375.757 247.943 C 375.899 285.037 375.673 315.726 375.257 316.143 C 374.841 316.5 374.759 367.75 375 248.7"/>
    <path fill="currentColor" fill-opacity="0.2" transform="translate(-302.5, -301)" d="M 230.466 475.5 C 230.466 446.35 230.593 434.569 230.749 449.32 C 230.905 464.071 230.905 487.921 230.749 502.32 C 230.593 516.719 230.466 504.65 230.466 475.5"/>
    <path fill="currentColor" fill-opacity="0.5" transform="translate(-302.5, -301)" d="M 375.989 249.75 C 375.983 213.312 375.699 181.812 375.358 179.75 C 375.358 179.75 374.738 176 374.738 176 C 374.738 176 250.869 176 250.869 176 C 250.869 176 127 176 127 176 C 127 176 127 124.5 127 124.5 C 127 124.5 127 73 127 73 C 127 73 249.363 73 249.363 73 C 249.363 73 371.725 73 371.725 73 C 371.725 73 424.863 126.889 424.863 126.889 C 424.863 126.889 478 180.778 478 180.778 C 478 180.778 478 248.389 478 248.389 C 478 248.389 478 316 478 316 C 478 316 427 316 427 316 C 427 316 376 316 376 316 C 376 316 375.989 249.75 375.989 249.75"/>
</svg>